# xmcd CD database file
#
# Track frame offsets:
#	150
#	20285
#	54184
#	82179
#	107747
#	124309
#	150867
#	176563
#	201990
#	226045
#	255533
#	261482
#
# Disc length: 3897 seconds
#
# Revision: 2
# Processed by: cddbd v1.5.2PL0 Copyright (c) Steve Scherf et al.
# Submitted via: CDex 1.51
#
DISCID=960f370c
DTITLE=Riversea - Out of an Ancient World
DYEAR=2012
DGENRE=Progressive Rock
TTITLE0=In the Beginning...
TTITLE1=The Song
TTITLE2=Is that what God wants?
TTITLE3=Halo
TTITLE4=The Fallen
TTITLE5=Eden
TTITLE6=Still Home
TTITLE7=Falling Stars
TTITLE8=Wiser
TTITLE9=Freeze the Frame
TTITLE10=Still Home (Reprise)
TTITLE11=Out of an Ancient World
EXTD=YEAR: 2012
EXTT0=
EXTT1=
EXTT2=
EXTT3=
EXTT4=
EXTT5=
EXTT6=
EXTT7=
EXTT8=
EXTT9=
EXTT10=
EXTT11=
PLAYORDER=
